<?xml version="1.0" encoding="UTF-8" standalone="no"?>
<!-- Created with Inkscape (http://www.inkscape.org/) -->

<svg
   version="1.1"
   id="svg1"
   width="477.26205"
   height="523.84082"
   viewBox="0 0 477.26205 523.84082"
   sodipodi:docname="final.svg"
   xml:space="preserve"
   inkscape:version="1.4.2 (f4327f4, 2025-05-13)"
   xmlns:inkscape="http://www.inkscape.org/namespaces/inkscape"
   xmlns:sodipodi="http://sodipodi.sourceforge.net/DTD/sodipodi-0.dtd"
   xmlns="http://www.w3.org/2000/svg"
   xmlns:svg="http://www.w3.org/2000/svg"><defs
     id="defs1" /><sodipodi:namedview
     id="namedview1"
     pagecolor="#ffffff"
     bordercolor="#000000"
     borderopacity="0.25"
     inkscape:showpageshadow="2"
     inkscape:pageopacity="0.0"
     inkscape:pagecheckerboard="0"
     inkscape:deskcolor="#d1d1d1"
     inkscape:zoom="0.80520833"
     inkscape:cx="239.68952"
     inkscape:cy="216.7141"
     inkscape:window-width="1920"
     inkscape:window-height="991"
     inkscape:window-x="2391"
     inkscape:window-y="-9"
     inkscape:window-maximized="1"
     inkscape:current-layer="g1" /><g
     inkscape:groupmode="layer"
     inkscape:label="Image"
     id="g1"
     transform="translate(-331.19926,-217.15341)"><path
       style="fill:#f5e6cc;stroke-width:0.771124;fill-opacity:1"
       d="m 553.08618,683.09413 c -11.51163,-4.81696 -11.58222,-10.19348 -0.447,-34.04222 8.83942,-18.93169 11.34762,-22.00798 18.0106,-22.08981 10.13651,-0.12449 17.00745,-23.5938 12.45805,-42.5534 -1.39483,-5.8129 -3.30495,-13.79355 -4.24471,-17.73473 -1.04097,-4.36566 -3.4774,-9.11829 -6.23501,-12.16237 -2.4895,-2.74811 -5.6699,-6.86678 -7.06757,-9.15259 -2.96506,-4.84922 -9.16067,-5.84934 -34.32146,-5.54033 -16.42505,0.20174 -16.52535,0.27154 -9.9934,6.95116 4.67966,4.78548 4.67966,4.78548 -1.28383,4.11503 -5.65347,-0.6356 -6.00741,-0.45789 -6.80844,3.41847 -1.78804,8.6528 -7.21622,5.27222 -11.33077,-7.05663 -1.16266,-3.48375 -2.14515,-5.34988 -2.18335,-4.14695 -0.0382,1.20294 -2.8991,6.59994 -6.3576,11.99334 -6.28819,9.80619 -6.28819,9.80619 -1.57922,14.53315 7.38814,7.41637 13.36168,10.53645 16.68269,8.71361 5.40174,-2.96488 38.61599,5.53054 46.10613,11.79288 6.26336,5.23665 0.72789,24.29876 -7.08401,24.3947 -17.13541,0.21046 -46.58292,-16.94493 -45.42998,-26.46639 0.59486,-4.9127 0.22682,-5.68927 -3.8548,-8.13325 -2.48185,-1.48607 -6.41533,-4.63115 -8.74105,-6.98906 -5.58662,-5.6639 -5.64675,-5.63833 -10.56832,4.49658 -4.95074,10.19497 -5.17722,12.65342 -1.46576,15.91125 7.37755,6.47583 -1.20915,29.59506 -18.1114,48.76402 -6.94487,7.8762 -25.11469,-0.806 -25.26652,-12.07327 -0.11934,-8.85621 24.92959,-41.2764 31.95824,-41.36272 3.3403,-0.041 4.19291,-0.87588 5.48166,-5.36737 0.83937,-2.92534 3.32403,-8.2029 5.5215,-11.72793 3.99537,-6.40912 3.99537,-6.40912 -0.18393,-13.62236 -2.29861,-3.96726 -4.68986,-9.97995 -5.31388,-13.36151 -1.88302,-10.20413 -18.05429,-3.99408 -20.77519,7.97803 -8.121,35.73277 -57.22765,19.75175 -57.7471,-18.79292 -0.10031,-7.4435 -0.22239,-7.66146 -6.05511,-10.80949 -13.56537,-7.32151 -17.91097,-24.93044 -8.12059,-32.90567 3.14754,-2.56399 3.82527,-4.67404 5.02187,-15.63518 4.38611,-40.17773 24.69505,-77.23912 42.45624,-77.47759 3.7344,-0.0505 4.60674,-0.62595 4.57448,-3.01947 -0.1511,-11.21256 14.59681,-66.30486 20.26719,-75.71015 11.54475,-19.1489 42.10191,-26.97019 108.27399,-27.71337 92.66314,-1.0407 114.02556,7.26191 124.75303,48.48585 3.93967,15.13951 9.2607,43.42907 9.34498,49.68307 0.0582,4.31564 0.44924,4.68156 5.84899,5.47292 19.0707,2.79491 34.91736,33.9547 37.39796,73.53682 1.07125,17.09361 1.12494,17.29968 4.49781,17.25825 14.81498,-0.18196 10.20133,25.6141 -6.66186,37.24813 -3.33374,2.29997 -3.73526,3.48571 -3.63749,10.74158 0.58131,43.1357 -50.41254,51.89701 -58.78098,10.09923 -0.98918,-4.94061 -2.40106,-8.39179 -3.39432,-8.29705 -0.93537,0.0892 -3.93559,0.28508 -6.66717,0.43522 -4.9665,0.273 -4.9665,0.273 -4.86177,8.04512 0.1288,9.55744 0.13938,9.5574 -8.82892,0.0409 -12.33866,-13.09301 -20.52517,-8.82517 -18.90672,9.85652 2.65054,30.5955 35.71219,88.55806 43.63247,76.495 8.96856,-13.65966 21.47011,-7.96662 39.91678,18.17754 6.95576,9.85831 -5.15118,26.97582 -16.22622,22.9416 -3.91447,-1.42591 -15.49739,-14.28783 -23.13619,-25.69092 -2.67804,-3.99776 -6.98059,-9.15075 -9.5612,-11.45107 -18.93982,-16.8827 -39.14408,-60.15588 -39.47271,-84.54205 -0.16992,-12.60917 -10.07743,-16.64261 -12.09839,-4.92536 -1.92713,11.17318 -9.3014,17.17376 -11.0587,8.99865 -0.77635,-3.61174 -1.56739,-4.25022 -5.21027,-4.20547 -5.27486,0.0648 -5.35734,-0.80795 -0.55967,-5.9225 3.76178,-4.01025 3.76178,-4.01025 -2.5378,-3.91123 -14.9288,0.23466 -15.9895,13.73244 -2.19489,27.93115 5.04801,5.19588 10.38336,12.02884 11.85634,15.18436 2.58329,5.53406 2.90697,5.7298 9.13631,5.5252 6.29533,-0.20677 27.89556,18.56724 38.72597,33.65897 6.62986,9.23844 -8.63269,28.69071 -19.42627,24.759 -3.19207,-1.16275 -26.28731,-25.5489 -31.65794,-33.42745 -3.23732,-4.74907 -3.40293,-13.4134 -0.35747,-18.70212 2.87405,-4.99099 1.26135,-9.044 -8.217,-20.6509 -8.2619,-10.11728 -9.08503,-9.26453 -4.83212,5.00607 4.78694,16.06255 4.23113,26.44758 -2.17179,40.57893 -4.54492,10.03067 -4.54492,10.03067 -1.27117,13.11998 5.65892,5.34014 3.479,16.02017 -8.09681,39.66858 -6.55519,13.39173 -11.03119,15.75413 -21.52747,11.36204 z m 13.11604,-4.5622 c 1.41212,-3.81314 -5.1,-9.0522 -11.15934,-8.97778 -7.16553,0.088 -7.95312,2.10184 -2.78324,7.11656 4.811,4.66659 12.52246,5.696 13.94258,1.86122 z m 7.38707,-14.86145 c 10.39271,-21.18102 11.37506,-27.89812 4.51968,-30.90431 -9.43491,-4.13736 -12.22976,-1.92127 -20.24651,16.05386 -6.52316,14.62621 -6.60186,15.12549 -2.37703,15.08059 3.71672,-0.0396 12.48999,4.78711 12.51828,6.88692 0.0409,3.03204 1.54816,1.11146 5.58558,-7.11706 z m 134.32507,-0.79925 c 5.00106,-5.10736 6.30522,-10.81886 2.45958,-10.77163 -5.8515,0.0719 -13.21612,7.06376 -13.19673,12.52885 0.0172,4.81198 5.12288,3.97638 10.73715,-1.75722 z m -9.75549,-9.5616 c 1.96503,-2.16183 4.37392,-3.94042 5.35308,-3.95245 5.31765,-0.0653 -6.11614,-18.38159 -14.02554,-22.4681 -6.67161,-3.44698 -15.53965,2.26914 -15.43615,9.94975 0.0857,6.35711 17.1558,26.95318 19.1443,23.09867 0.76536,-1.4835 2.99929,-4.46605 4.96431,-6.62787 z m -56.17965,-16.02576 c 4.73102,-5.74562 5.93299,-10.89724 3.16823,-13.57901 -4.43265,-4.2996 -16.65681,4.38578 -16.55738,11.76417 0.0983,7.29008 7.99898,8.36098 13.38915,1.81484 z m -185.91587,-1.08473 c -0.0977,-7.24969 -14.76363,-14.24924 -17.03047,-8.12807 -1.87906,5.07406 6.43526,13.30915 12.83205,12.70978 3.69102,-0.34585 4.24732,-0.95293 4.19842,-4.58171 z m 169.62147,-5.5645 c -0.0317,-2.352 7.34369,-10.30668 10.82281,-11.67289 4.00296,-1.57192 4.10677,-1.40309 -10.52563,-17.11934 -16.23113,-17.43342 -35.87574,-7.26583 -20.88198,10.80801 10.39108,12.52566 20.63181,21.47262 20.5848,17.98422 z m -157.22845,-9.98809 c 12.35467,-18.81785 7.42685,-37.53754 -6.82127,-25.91252 -7.06326,5.7629 -18.18683,26.72361 -14.15561,26.6741 3.26723,-0.0402 10.26377,5.12435 11.34925,8.37741 1.27081,3.80847 0.8894,4.17051 9.62763,-9.13899 z m 82.90284,-12.30907 c 4.83555,-5.95457 1.68895,-17.59388 -3.83062,-14.16951 -3.41568,2.11913 -6.05563,10.51227 -4.30835,13.69751 1.60059,2.91782 5.94806,3.16995 8.13897,0.472 z m -12.24845,-16.51674 c 1.1863,-2.76592 -20.06705,-11.29567 -26.16904,-10.5026 -8.38491,1.08978 -9.09373,12.7159 -1.05515,17.30687 14.05978,8.02979 24.68633,8.87045 25.47707,2.01549 0.41192,-3.57083 1.19813,-7.53972 1.74712,-8.81976 z m 175.0187,-29.46398 c 6.36768,-3.37894 10.99086,-10.1275 12.47498,-18.21 1.93919,-10.56085 2.21901,-20.24109 0.57353,-19.84094 -15.38543,3.74152 -22.68676,5.21608 -35.45565,7.16053 -8.41219,1.28102 -15.50315,2.33168 -15.75767,2.3348 -2.02956,0.025 0.41749,12.18446 3.68936,18.33263 6.24328,11.73178 22.53054,16.56143 34.47545,10.22298 z m -275.72371,0.30183 c 4.09116,-3.08189 7.74217,-12.30562 9.24493,-23.35593 0.884,-6.50025 0.884,-6.50025 -15.93914,-7.24309 -15.03529,-0.66392 -23.9846,-1.84358 -32.35602,-4.26509 -5.71145,-1.65209 -0.41568,26.06169 6.20775,32.48631 7.15325,6.93854 25.06648,8.23545 32.84248,2.3778 z m 52.75714,-11.26004 c 7.34536,-11.64283 7.1965,-12.58494 -1.97443,-12.49604 -4.09986,0.0397 -8.99733,-0.3183 -10.88322,-0.79567 -4.25264,-1.07639 -3.59403,5.64112 1.55747,15.88529 4.03094,8.0159 4.70427,7.86136 11.30018,-2.59358 z m 25.11266,-3.29835 c 1.96349,0.72207 1.81251,0.12193 -0.76957,-3.0592 -2.51626,-3.10005 -3.2372,-5.80963 -3.32745,-12.50599 -0.12293,-9.12162 -3.66813,-18.23236 -8.87213,-22.8003 -4.68678,-4.11396 -4.33651,-1.74872 0.93925,6.34217 3.426,5.25413 4.94847,9.18784 4.89243,12.641 -0.0813,5.0132 -0.0813,5.0132 -1.77584,-0.0576 -0.93199,-2.78897 -3.55235,-7.65536 -5.82304,-10.81422 -2.27069,-3.15885 -4.2444,-7.36197 -4.38605,-9.34028 -0.14161,-1.9783 -0.75868,-3.5912 -1.37127,-3.58423 -2.27732,0.0257 0.96974,15.0926 4.86042,22.55285 2.21551,4.24815 4.47982,10.76504 5.03182,14.48198 1.57342,10.5951 3.79813,13.80139 6.24501,9.00044 1.35791,-2.6643 2.6232,-3.49398 4.35642,-2.85659 z m 92.55392,-6.91672 c 0.80351,-4.00533 3.02074,-9.70234 4.92716,-12.66003 1.90643,-2.9577 4.03514,-8.59808 4.73048,-12.53418 0.69534,-3.93612 1.62067,-7.74774 2.0563,-8.47033 0.43564,-0.72256 0.11545,-1.30545 -0.71154,-1.29529 -0.82699,0.0101 -1.48774,1.19623 -1.46835,2.63572 0.0195,1.43948 -1.52465,4.79749 -3.43122,7.46221 -1.90656,2.66473 -4.73164,7.40451 -6.27796,10.53286 -2.81148,5.68793 -2.81148,5.68793 -2.1074,0.75569 0.38724,-2.71273 2.41296,-7.4956 4.50161,-10.62858 6.49599,-9.74409 6.49793,-9.74882 3.29597,-7.99134 -6.5496,3.59494 -10.67517,14.81034 -11.14507,30.298 -0.0177,0.58323 -1.29286,2.34791 -2.83371,3.92151 -2.14695,2.19258 -2.31025,2.85508 -0.69888,2.83527 1.15648,-0.0142 2.55166,1.65906 3.10041,3.71834 1.38139,5.18387 4.06222,1.38967 6.0622,-8.57985 z m 45.13686,-2.44069 c -0.34031,-2.81341 0.40558,-4.25559 2.86655,-5.54243 3.30525,-1.72832 3.29591,-1.74557 -1.45632,-2.69085 -6.44122,-1.28126 -9.23035,-3.93917 -12.24786,-11.67161 -3.02428,-7.74986 -6.18036,-12.82447 -7.96239,-12.80258 -0.71112,0.009 -0.2929,1.88003 0.9294,4.15843 2.58492,4.81835 2.7252,5.6901 0.91917,5.71228 -0.72828,0.009 -1.7122,-1.09197 -2.18652,-2.4465 -0.4743,-1.35452 -2.14119,-4.03707 -3.70419,-5.96122 -2.00379,-2.46677 -1.33337,0.0149 2.27333,8.41415 3.84649,8.95806 6.97521,13.73952 12.6148,19.27858 8.72641,8.57084 8.55171,8.49283 7.95403,3.55175 z M 474.92641,523.26364 c 1.25311,-2.34629 4.31822,-7.82018 6.81139,-12.16419 5.33039,-9.28751 4.95282,-11.75157 -0.50614,-3.30321 -2.07168,3.20613 -4.32068,5.83613 -4.99782,5.84444 -2.02513,0.0249 -1.43914,-2.20243 1.62842,-6.18944 3.29253,-4.27941 2.64678,-4.73042 -2.15984,-1.50852 -1.82957,1.22636 -4.10472,4.27533 -5.05586,6.77547 -3.59197,9.44169 -7.7857,13.56374 -14.98517,14.72902 -5.98954,0.96947 -6.37049,1.23696 -3.51026,2.46472 2.22102,0.95338 3.22486,2.59504 3.26177,5.33426 0.0669,4.96112 15.53827,-4.53931 19.51351,-11.98255 z m 22.47055,7.23972 c -3.28181,-3.32247 -3.77385,-4.99641 -3.88461,-13.21579 -0.19545,-14.50313 -4.05165,-15.59768 -9.37379,-2.66066 -2.15122,5.22915 -6.01586,11.88722 -8.58808,14.79569 -5.24681,5.93268 -4.06155,6.44892 16.08976,7.00794 9.92186,0.27524 10.89428,-0.72597 5.75672,-5.92718 z m 100.87198,3.54692 c 0.86364,-0.26804 1.84931,-3.28838 2.1904,-6.71187 0.88131,-8.84529 3.58107,-13.75228 10.54991,-19.17515 6.55983,-5.10459 6.72874,-6.57194 0.2103,-1.82696 -7.69791,5.60357 -18.63833,10.04304 -21.32666,8.65407 -3.77074,-1.9482 -57.51171,-1.00534 -60.75206,1.06589 -3.39875,2.17245 -8.40191,0.24795 -20.4261,-7.8571 -4.90654,-3.3073 -9.25671,-5.63588 -9.66703,-5.1746 -0.41034,0.46126 0.14728,1.14165 1.23915,1.51194 8.92156,3.02575 17.21303,16.85055 15.39187,25.66367 -0.46573,2.25373 -0.43327,4.74443 0.0722,5.53491 0.82875,1.2963 77.98891,-0.27911 82.51814,-1.6848 z m 29.9401,-1.98557 c 7.0014,-0.92455 7.30138,-1.13177 5.71057,-3.94456 -0.92346,-1.6328 -2.79092,-6.7711 -4.14993,-11.41846 -3.40753,-11.65263 -6.63516,-12.08377 -7.82994,-1.04592 -0.96251,8.89191 -2.50475,12.92276 -5.99068,15.65752 -2.69107,2.11116 0.48768,2.30598 12.25998,0.75142 z m 61.41534,-4.04959 c 43.4053,-6.30737 56.63189,-12.63477 56.43831,-26.99928 -0.16164,-11.99414 -4.28377,-15.82721 -11.11604,-10.3365 -6.14109,4.93526 -40.12854,13.54932 -61.94447,15.69974 -6.23995,0.61508 -12.13895,1.76064 -13.10889,2.54569 -2.15263,1.74231 -12.72215,0.37029 -16.73656,-2.17255 -2.40822,-1.52544 -2.03025,-0.15592 2.25112,8.15678 8.47009,16.44553 12.66963,17.69031 44.21653,13.10612 z m -239.30602,-1.99614 c 9.07511,-3.19977 10.24715,-4.08404 14.17073,-10.69142 2.35254,-3.96171 5.41931,-8.49211 6.81502,-10.06757 2.53113,-2.85708 2.52004,-2.85824 -4.30444,-0.44905 -12.46325,4.39977 -57.63838,-0.69511 -75.58044,-8.52402 -10.4192,-4.54636 -13.25364,-2.92195 -13.11299,7.51503 0.12132,9.00236 6.13396,14.05823 22.6196,19.02025 25.64987,7.72035 34.87039,8.31713 49.39252,3.19678 z m 80.01891,-15.89026 c -0.0475,-3.52631 -16.91126,-10.35344 -23.02263,-9.32049 -1.91603,0.32385 0.45484,2.09186 7.56898,5.64437 10.3382,5.16248 15.49021,6.38804 15.45365,3.67612 z m 71.61588,-3.6613 c 4.52341,-2.37427 8.60238,-4.74 9.06438,-5.25714 1.60245,-1.79377 -12.69696,1.00212 -17.23209,3.36929 -5.76635,3.00985 -5.7261,2.96813 -4.58504,4.75295 1.48823,2.32783 3.88531,1.78929 12.75275,-2.8651 z m -17.00391,-1.20402 c -5.00792,-21.32921 9.14122,-28.55494 27.14633,-13.86315 4.57174,3.73044 8.15433,4.49612 9.62484,2.05704 0.47986,-0.79592 1.51104,-1.06532 2.29154,-0.59869 4.90445,2.93226 9.19994,-2.64541 26.21534,-34.04045 9.42522,-17.39044 19.48976,-35.78192 22.36562,-40.86995 4.13439,-7.3146 4.81684,-9.47676 3.26044,-10.3297 -44.22646,-24.23696 -205.0004,-22.09331 -229.63191,3.06177 -1.12007,1.14388 3.92536,11.69911 22.29395,46.63977 5.51544,10.49147 10.50624,21.43743 11.09067,24.32435 1.06102,5.2413 5.52744,9.48127 10.4923,9.96033 1.29851,0.12531 3.99867,0.6553 6.00036,1.17779 2.70821,0.70688 6.20065,-0.38563 13.6493,-4.26981 19.72215,-10.28433 24.46637,-8.51422 25.13782,9.37911 l 0.40057,10.67467 12.78468,0.31077 c 38.92272,0.94613 37.9707,1.03942 36.87815,-3.61385 z m -70.74855,-30.99527 c -1.93533,-2.26062 -1.30928,-31.47738 0.71539,-33.38608 0.54175,-0.51071 20.37208,-0.82255 44.0674,-0.69298 l 43.08243,0.23557 -0.73997,14.99753 c -0.40699,8.24865 -1.03824,16.11421 -1.4028,17.47903 -0.94697,3.54517 -82.74103,4.84945 -85.72245,1.36693 z m 82.7908,-8.15302 c 0.45405,-3.6608 0.77583,-10.34474 0.71508,-14.85317 l -0.11047,-8.19715 -38.69597,0.0376 c -21.28277,0.0207 -39.49155,0.27445 -40.46394,0.56389 -1.25992,0.37503 -1.71428,4.50981 -1.58116,14.38843 0.2264,16.80017 -4.61536,15.06618 41.53181,14.87386 l 37.7791,-0.15746 z m -73.75957,-6.99626 c -0.60206,-4.62144 -0.75504,-8.74944 -0.33995,-9.17336 1.92541,-1.96633 3.81633,1.6455 3.89439,7.43864 0.0861,6.38366 0.0861,6.38366 5.69939,5.91088 10.87924,-0.9163 8.94535,2.06845 -2.25583,3.48164 -5.90334,0.74479 -5.90334,0.74479 -6.998,-7.6578 z m 18.64098,5.34743 c -2.81881,-3.89618 -2.96194,-9.44012 -0.34251,-13.26767 2.92718,-4.27726 10.121,-3.04446 12.94431,2.21824 4.9778,9.27874 -6.5623,19.39726 -12.6018,11.04943 z m 20.02989,-4.90955 c -4.29713,-8.4368 -4.78651,-10.51 -2.48754,-10.53823 0.82509,-0.0101 3.03504,3.30175 4.911,7.35975 l 3.41083,7.37816 0.94139,-6.74233 c 0.87738,-6.28389 2.63146,-9.39564 4.35429,-7.72452 1.3058,1.2666 -3.83114,17.98225 -5.53262,18.00313 -0.90578,0.0112 -3.42458,-3.47006 -5.59735,-7.73596 z m 17.81369,5.80246 c -1.56843,-1.83204 -2.39038,-6.53204 -2.08198,-11.90464 0.16792,-2.92489 6.62198,-6.12022 12.56252,-6.21958 4.19285,-0.0701 1.3248,2.63576 -3.77038,3.55719 -3.78049,0.68368 -5.34124,1.60405 -4.84002,2.85419 0.43758,1.09138 1.94875,1.51444 3.69931,1.03564 2.01489,-0.5511 2.64237,-0.28338 1.96587,0.83872 -0.54651,0.9065 -1.95878,1.66003 -3.13836,1.67452 -1.41336,0.0174 -1.9738,1.10861 -1.64354,3.20021 0.59507,3.76875 5.87039,3.75782 9.95866,-0.0206 2.34331,-2.16573 2.53159,-2.16034 2.56169,0.0732 0.0585,4.33932 -12.34809,8.32853 -15.27377,4.91111 z m -90.27305,-39.25468 c -0.0277,-2.0563 14.52897,-6.27874 25.10781,-7.28301 6.10655,-0.57969 8.87074,-0.34168 8.88565,0.76512 0.012,0.88362 -1.73523,1.63919 -3.88252,1.67906 -3.55363,0.066 -16.40574,2.64883 -26.20004,5.26535 -2.38243,0.63647 -3.89881,0.4711 -3.9109,-0.42652 z m 130.94281,-2.6247 c -3.34489,-1.00218 -10.53755,-2.20392 -15.98371,-2.67052 -6.06614,-0.51974 -9.56759,-1.40326 -9.03857,-2.28069 1.15493,-1.91566 17.56544,-0.61772 27.1785,2.14962 4.13961,1.19166 7.15862,2.77696 6.70892,3.52287 -0.97395,1.61547 -1.10034,1.60519 -8.86514,-0.72128 z m -79.92547,-5.13719 c -0.0351,-2.61112 17.60533,-4.05789 30.29947,-2.48498 12.44836,1.54245 6.62319,3.25992 -11.82527,3.48649 -10.1517,0.12468 -18.4651,-0.326 -18.4742,-1.00151 z m -53.63412,-1.2929 c 1.0687,-3.396 33.31488,-10.69598 35.95126,-8.13874 1.81065,1.75632 -0.49931,2.62168 -10.76615,4.03319 -5.5737,0.76632 -13.38934,2.39944 -17.36809,3.62919 -8.7189,2.69483 -8.51117,2.68216 -7.81702,0.47636 z m 138.07939,-2.26573 c -3.13945,-1.137 -10.98395,-2.3575 -17.43223,-2.71222 -12.09394,-0.66531 -17.80714,-4.41184 -6.93142,-4.54542 11.88493,-0.14597 32.14316,4.97401 32.18575,8.1345 0.0234,1.74156 -0.86818,1.64162 -7.8221,-0.87686 z M 483.5147,407.66391 c -0.0423,-3.14021 34.44073,-10.62134 38.30583,-8.31049 3.00136,1.79444 -0.39113,3.13351 -10.58959,4.17983 -5.84858,0.60004 -13.67484,2.05062 -17.39169,3.2235 -7.88549,2.48833 -10.30037,2.70052 -10.32455,0.90716 z m 141.96838,-2.74676 c -3.52903,-1.06954 -11.37335,-2.2766 -17.4318,-2.68234 -6.05845,-0.40577 -11.02385,-1.3676 -11.03421,-2.13741 -0.0278,-2.05952 23.38491,-0.56313 32.33407,2.06657 4.11671,1.20969 7.49317,2.81071 7.50323,3.55781 0.0244,1.81007 -3.58696,1.55452 -11.37129,-0.80463 z m -84.81093,-5.84223 c 0.51067,-1.60825 27.56567,-3.05018 34.65042,-1.84672 9.68398,1.64496 3.93389,2.78617 -15.22392,3.02146 -12.61787,0.15497 -19.71251,-0.27404 -19.4265,-1.17474 z m 115.98219,106.02611 c -0.0434,-3.21459 -7.72446,-6.30763 -15.27798,-6.15212 -6.81389,0.14027 -6.81389,0.14027 -2.5231,2.41203 10.16967,5.38437 17.84497,6.99698 17.80108,3.74009 z m 25.08539,-3.8852 c 55.20213,-8.67955 56.73013,-10.197 49.49783,-49.15621 -11.03058,-59.4199 -34.28954,-69.84157 -58.14398,-26.05269 -4.44127,8.15269 -13.44866,24.54873 -20.01641,36.43565 -13.69415,24.78489 -13.20201,22.67874 -4.91451,21.03187 10.80128,-2.14641 17.23138,5.12541 13.24716,14.98125 -1.06714,2.63981 -1.93701,5.03994 -1.93306,5.33362 0.0115,0.85612 1.66909,0.66452 22.26297,-2.57349 z m 10.5811,-16.32854 c -7.95299,-3.32534 -9.21625,-13.22468 -4.11349,-32.23463 6.53923,-24.3614 28.04295,-18.5744 33.24011,8.94547 3.59421,19.03196 -11.13721,30.81096 -29.12662,23.28916 z m 20.37039,-3.76276 c 13.73275,-8.57266 2.22546,-45.50046 -12.48838,-40.0762 -8.10348,2.98733 -15.46833,26.32547 -11.3309,35.90591 3.07059,7.11009 15.59678,9.30316 23.81928,4.17029 z m -16.18983,-4.92156 c -7.36499,-7.14394 -2.61251,-23.20782 6.8867,-23.2777 7.61322,-0.056 10.84238,4.23427 10.98195,14.5907 0.15523,11.51901 -9.90619,16.41046 -17.86865,8.687 z m 12.88245,-3.90061 c 4.58676,-6.70227 1.06085,-16.65871 -5.86926,-16.5736 -4.04185,0.0497 -6.23865,2.80719 -7.1615,8.98948 -1.3196,8.84028 8.32825,14.45549 13.03076,7.58412 z m -178.47765,29.00675 c -0.60842,-1.74155 -1.22915,-5.39096 -1.37939,-8.10981 -0.3683,-6.66438 -7.63857,-6.66339 -20.80072,0.003 -8.06336,4.08386 -8.52757,4.53159 -4.12428,3.97785 6.86964,-0.8639 17.80994,1.4579 21.70158,4.6056 4.35405,3.52173 5.94216,3.35733 4.60281,-0.47648 z m 76.31935,-3.68543 c 8.69316,0.0159 8.69316,0.0159 4.47787,-2.72179 -13.34749,-8.6688 -20.64137,-9.82201 -20.55279,-3.24953 0.036,2.67437 -0.56811,5.26335 -1.34253,5.7533 -4.791,3.03097 -1.1882,6.19216 3.69445,3.24161 3.73275,-2.25565 7.27169,-3.03539 13.723,-3.02359 z m -137.0792,3.0688 c 9.53477,-3.24665 9.53477,-3.24665 4.58738,-4.27607 -8.89562,-1.85095 -21.24559,1.37752 -21.1895,5.53924 0.0397,2.95096 5.43063,2.5408 16.60212,-1.26317 z m -19.07915,1.11608 c 0.45487,-0.46454 -0.10873,-3.37661 -1.25248,-6.47127 -4.54462,-12.29672 4.40642,-19.54295 18.29692,-14.81212 3.10847,1.05869 5.95837,1.6118 6.33309,1.22912 1.39457,-1.42422 -38.04277,-75.02018 -41.69148,-77.80254 -13.14611,-10.02467 -31.40748,13.44252 -41.04906,52.75102 -8.25549,33.65742 -5.3917,36.93691 37.67063,43.13902 21.40849,3.08337 20.66503,3.01597 21.69238,1.96677 z M 406.91422,487.6957 c -16.05063,-9.46586 -7.90951,-46.60049 10.26529,-46.8237 14.50519,-0.17815 23.52512,40.36705 10.51602,47.2702 -5.62994,2.98746 -15.31128,2.77947 -20.78131,-0.4465 z m 20.7194,-4.03565 c 7.67566,-9.97631 0.0284,-40.14261 -10.12353,-39.934 -13.68265,0.28118 -22.30031,30.33814 -11.40873,39.79182 6.54649,5.68222 17.2156,5.75267 21.53226,0.14218 z m -17.9734,-3.70706 c -7.27134,-6.06702 -4.42902,-22.05521 4.33042,-24.35863 8.8102,-2.31677 15.02468,6.93878 12.10678,18.03129 -2.45553,9.33477 -9.55666,12.06828 -16.4372,6.32734 z m 11.20186,-3.43924 c 5.45346,-6.34496 3.69855,-16.59958 -3.11684,-18.21293 -8.61152,-2.03851 -12.6746,16.68705 -4.28473,19.74702 3.69933,1.34922 5.1887,1.04053 7.40157,-1.53409 z m 237.88941,11.565 c -1.26009,-3.1429 -5.03831,-2.56088 -18.65388,2.87352 l -12.3158,4.91564 9.75537,-0.26043 c 6.14123,-0.16394 11.34405,0.51177 14.04361,1.82389 4.60193,2.23677 9.33973,-3.94265 7.1707,-9.35262 z m -184.10019,4.75158 10.7293,0.60383 -11.43172,-5.28993 c -17.48944,-8.09311 -23.56695,-7.03387 -20.09797,3.5028 1.66018,5.04265 1.66018,5.04265 5.86565,2.81106 3.15264,-1.67292 6.8915,-2.08042 14.93474,-1.62776 z m 211.21211,-92.90964 c 5.81757,-6.30033 5.83647,-7.01967 0.881,-33.5474 -11.99942,-64.23553 -24.75354,-71.29885 -126.38437,-69.99262 -83.427,1.07226 -101.25803,9.10149 -114.51388,51.56509 -14.13889,45.29238 -13.19498,61.75945 3.16473,55.21038 58.4617,-23.40319 158.24922,-24.44562 219.72918,-2.2954 6.27873,2.26212 11.61899,4.1468 11.86725,4.18816 0.24828,0.0415 2.61351,-2.26632 5.25609,-5.12821 z M 467.62409,384.93781 c -24.6318,-2.82222 -12.55549,-48.87512 16.68299,-63.62052 32.15296,-16.2152 143.07186,-15.89899 162.78385,0.46407 10.45289,8.67703 18.84076,28.74553 19.06819,45.62193 0.24902,18.47881 -2.65564,19.14043 -60.16761,13.7049 -39.11345,-3.69668 -78.26108,-2.36742 -127.74641,4.3376 -1.55921,0.21126 -6.33867,-0.0174 -10.62101,-0.50798 z m 192.66687,-8.32805 c 3.44707,-3.5282 2.47104,-16.66609 -2.22962,-30.01196 -10.5143,-29.85175 -20.58816,-33.41499 -92.02505,-32.55045 -76.11163,0.92115 -95.65529,8.98457 -105.21205,43.40903 -6.68618,24.08432 -2.73845,26.07343 40.12263,20.21624 32.32944,-4.418 74.29365,-4.68372 112.08905,-0.70976 32.38458,3.40505 43.66564,3.32076 47.25504,-0.3531 z m -189.8521,-5.45019 c -9.22799,-8.95099 3.43124,-33.53297 21.53406,-41.81533 25.86402,-11.83325 117.40185,-13.6607 139.50228,-2.78502 10.62578,5.22898 20.22711,21.82817 20.40843,35.28297 0.13096,9.71762 -1.56271,10.29782 -26.79494,9.17932 -28.54125,-1.26517 -110.6354,-0.25361 -133.6837,1.64716 -17.24246,1.42204 -18.00046,1.36748 -20.96613,-1.50918 z m 177.23909,-4.47965 c 2.46131,-3.0309 0.58651,-12.5746 -4.50517,-22.93378 -8.70653,-17.71365 -20.41064,-20.52567 -78.20311,-18.78896 -63.34519,1.90356 -79.09978,6.72272 -89.09232,27.25241 -8.20665,16.86053 -8.36213,16.79674 34.17776,14.0215 35.17657,-2.29486 79.60261,-1.71424 110.66597,1.44637 16.26131,1.65452 25.06785,1.32864 26.95687,-0.99754 z m -82.94872,-9.12306 c -0.52759,-0.51175 -0.96657,-1.47476 -0.97554,-2.14003 -0.0204,-1.51623 27.1965,-19.85331 29.50959,-19.88173 3.75024,-0.046 -0.0383,3.89659 -12.66172,13.17677 -13.71989,10.08625 -14.27421,10.39516 -15.87233,8.84499 z m -18.5169,-1.22542 c -2.28878,-2.22006 -0.22761,-4.74261 9.93455,-12.15829 13.76491,-10.04476 17.15545,-11.86485 18.91782,-10.15539 0.87012,0.84402 -3.41222,4.95136 -11.70652,11.22814 -16.28616,12.32469 -16.03546,12.1626 -17.14585,11.08554 z"
       id="path48" /></g></svg>
